<svg width="1024" height="1024" viewBox="0 0 1024 1024" fill="none" xmlns="http://www.w3.org/2000/svg">
  <!-- Background with rounded corners -->
  <rect width="1024" height="1024" rx="180" fill="#111827"/>

  <!-- Subtle gradient overlay -->
  <rect width="1024" height="1024" rx="180" fill="url(#gradient)" opacity="0.3"/>

  <!-- Sparkles icon (scaled and centered) -->
  <g transform="translate(262, 262) scale(20.83)">
    <!-- Main sparkle -->
    <path d="M12 3L13.09 8.26L18 9L13.09 9.74L12 15L10.91 9.74L6 9L10.91 8.26L12 3Z" fill="white"/>
    <!-- Secondary sparkle top-right -->
    <path d="M19 8L19.54 10.12L21.5 10.5L19.54 10.88L19 13L18.46 10.88L16.5 10.5L18.46 10.12L19 8Z" fill="white" opacity="0.7"/>
    <!-- Secondary sparkle bottom-left -->
    <path d="M5 16L5.54 18.12L7.5 18.5L5.54 18.88L5 21L4.46 18.88L2.5 18.5L4.46 18.12L5 16Z" fill="white" opacity="0.7"/>
  </g>

  <defs>
    <linearGradient id="gradient" x1="0" y1="0" x2="1024" y2="1024" gradientUnits="userSpaceOnUse">
      <stop offset="0%" stop-color="#1F2937"/>
      <stop offset="100%" stop-color="#030712"/>
    </linearGradient>
  </defs>
</svg>
